<?xml version="1.0" standalone="no"?>
<svg xmlns="http://www.w3.org/2000/svg" viewBox="0 0 650 200">
    <g id="dotfiles" aria-label="dotfiles">
        <path style="fill: rgb(236, 77, 75)" d="M 286 -160.9 c 1.1 2.4 2.5 4.7 4.4 6.6 c 1.9 1.9 4.1 3.4 6.6 4.4 c 2.5 1.1 5.3 1.6 8 1.6 c 2.7 0 5.5 -0.5 8 -1.6 c 2.4 -1 4.6 -2.5 6.6 -4.4 c 1.9 -1.9 3.3 -4.1 4.4 -6.6 c 1.1 -2.5 1.6 -5.2 1.6 -8 v -34.9 l -10.8 -3.6 v 20.4 c -0.6 -0.3 -1.2 -0.6 -1.7 -0.8 c -2.5 -1.1 -5.2 -1.6 -8 -1.6 c -2.7 0 -5.5 0.5 -8 1.6 c -2.4 1 -4.6 2.5 -6.6 4.4 c -1.9 1.9 -3.3 4.1 -4.4 6.6 c -1 2.5 -1.6 5.2 -1.6 7.9 c 0 2.8 0.6 5.5 1.6 8 z m 18.9 -17.7 c 5.3 0 9.7 4.4 9.7 9.7 c 0 5.4 -4.4 9.7 -9.7 9.7 c -5.3 0 -9.7 -4.3 -9.7 -9.7 c 0 -5.3 4.4 -9.7 9.7 -9.7 z" transform="translate(0,325.9) translate(252,7.3) scale(1.8) translate(-391,56)"></path>
        <path style="fill: rgb(236, 77, 75)" d="M 349.2 -148.4 c 2.7 0 5.5 -0.6 8 -1.6 c 2.4 -1.1 4.7 -2.5 6.6 -4.4 c 1.9 -1.9 3.3 -4.1 4.4 -6.6 c 1.1 -2.5 1.6 -5.3 1.6 -8 c 0 -2.8 -0.5 -5.5 -1.6 -8 c -1.1 -2.4 -2.5 -4.7 -4.4 -6.6 c -1.9 -1.9 -4.1 -3.3 -6.6 -4.4 c -2.5 -1.1 -5.3 -1.6 -8 -1.6 c -2.7 0 -5.5 0.5 -8 1.6 c -2.4 1.1 -4.6 2.5 -6.6 4.4 c -1.9 1.9 -3.3 4.1 -4.4 6.6 c -1 2.5 -1.6 5.2 -1.6 8 c 0 2.7 0.6 5.5 1.6 8 c 1.1 2.4 2.5 4.6 4.4 6.6 c 1.9 1.9 4.1 3.3 6.6 4.4 c 2.5 1 5.3 1.6 8 1.6 z m 0 -30.2 c 5.3 0 9.7 4.4 9.7 9.7 c 0 5.3 -4.4 9.7 -9.7 9.7 c -5.3 0 -9.7 -4.4 -9.7 -9.7 c 0 -5.3 4.4 -9.7 9.7 -9.7 z" transform="translate(0,325.9) translate(344,40.2) scale(1.8) translate(-435.3,38)"></path>
        <path style="fill: rgb(236, 77, 75)" d="M 396.7 -178.9 v -10.1 h -11.4 v -12.9 l -10.8 3.6 v 27.9 c 0 3 0.6 5.9 1.7 8.6 c 1.1 2.7 2.7 5 4.8 7.1 c 2 2.1 4.4 3.7 7.1 4.8 c 2.7 1.2 5.7 1.7 8.7 1.7 v -10.8 c -6.3 0 -11.4 -5.1 -11.4 -11.4 v -8.6 z" transform="translate(0,325.9) translate(438.6,17.4) scale(1.8) translate(-481,50.5)"></path>
        <path style="fill: rgb(236, 77, 75)" d="M 411.2 -188.9 v -0.1 c 0 -6.3 5.1 -11.4 11.4 -11.4 v -10.8 c -3 0 -6 0.6 -8.7 1.8 c -2.7 1.1 -5 2.7 -7.1 4.8 c -2 2 -3.7 4.4 -4.8 7.1 c -1.2 2.7 -1.7 5.7 -1.7 8.6 V -148.9 h 10.8 v -29.9 h 11.4 v -10.1 z" transform="translate(0,325.9) translate(497,0.4) scale(1.8) translate(-507,59.8)"></path>
        <path style="fill: rgb(236, 77, 75)" d="M 424 -148.9 h 10.9 v -41.5 l -10.9 3.6 z" transform="translate(0,325.9) translate(551.2,38.4) scale(1.8) translate(-530.6,39)"></path>
        <path style="fill: rgb(236, 77, 75)" d="M 441.6 -148.9 h 10.9 v -58 l -10.9 3.6 z" transform="translate(0,325.9) translate(594.4,8.2) scale(1.8) translate(-548.1,55.5)"></path>
        <path style="fill: rgb(236, 77, 75)" d="M 475.8 -148.6 c 2.8 0 5.5 -0.6 8.1 -1.7 c 2.5 -1.1 4.8 -2.7 6.6 -4.6 l -7.6 -7.2 c -1.9 2 -4.4 3.1 -7.1 3.1 c -3.5 0 -6.6 -1.9 -8.4 -4.6 h 28.6 v -5.3 c 0 -5.4 -2.1 -10.5 -5.9 -14.3 c -3.8 -3.8 -8.9 -6 -14.3 -6 c -5.5 0 -10.5 2.2 -14.4 6 c -3.8 3.8 -5.9 8.9 -5.9 14.3 c 0 5.4 2.1 10.5 5.9 14.3 c 3.9 3.8 8.9 6 14.4 6 z m -8.4 -25.5 c 1.7 -2.8 4.8 -4.7 8.4 -4.7 c 3.5 0 6.6 1.9 8.4 4.7 z" transform="translate(0,325.9) translate(630.8,40.6) scale(1.8) translate(-562.1,37.8)"></path>
        <path style="fill: rgb(236, 77, 75)" d="M 513.5 -148.5 c 7.3 0 13.2 -5.9 13.2 -13.2 c 0 -7.3 -5.9 -13.2 -13.2 -13.2 h -3 c -1.1 0 -1.9 -0.9 -1.9 -1.9 c 0 -1.1 0.8 -1.9 1.9 -1.9 h 15 V -189.9 h -15 c -7.3 0 -13.2 6 -13.2 13.2 c 0 7.3 5.9 13.2 13.2 13.2 h 3 c 1 0 1.9 0.9 1.9 1.9 c 0 1.1 -0.9 1.9 -1.9 1.9 H 496.6 V -148.5 Z" transform="translate(0,325.9) translate(717.1,39.3) scale(1.8) translate(-603.2,38.5)"></path>
    </g>
</svg>